<svg xmlns="http://www.w3.org/2000/svg" version="1.1" xmlns:xlink="http://www.w3.org/1999/xlink" xmlns:svgjs="http://svgjs.dev/svgjs" width="1000" height="1000" viewBox="0 0 1000 1000"><rect width="1000" height="1000" fill="#ffffff"></rect><g transform="matrix(0.7,0,0,0.7,149.57575895981256,420.23130542635806)"><svg viewBox="0 0 396 91" data-background-color="#ffffff" preserveAspectRatio="xMidYMid meet" height="229" width="1000" xmlns="http://www.w3.org/2000/svg" xmlns:xlink="http://www.w3.org/1999/xlink"><g id="tight-bounds" transform="matrix(1,0,0,1,0.23999921702034044,-0.2164615957491094)"><svg viewBox="0 0 395.52 91.4329231914982" height="91.4329231914982" width="395.52"><g><svg viewBox="0 0 674.5529984283185 155.93737988949042" height="91.4329231914982" width="395.52"><g transform="matrix(1,0,0,1,279.03299842831854,4.683734192532839)"><svg viewBox="0 0 395.5199999999999 146.56991150442474" height="146.56991150442474" width="395.5199999999999"><g id="textblocktransform"><svg viewBox="0 0 395.5199999999999 146.56991150442474" height="146.56991150442474" width="395.5199999999999" id="textblock"><g><svg viewBox="0 0 395.5199999999999 146.56991150442474" height="146.56991150442474" width="395.5199999999999"><g transform="matrix(1,0,0,1,0,0)"><svg width="395.5199999999999" viewBox="0.75 -33 90.38999938964844 33.5" height="146.56991150442474" data-palette-color="#001f3f"><path d="M2.2 0L0.75 0 14.2-33 15.8-33 29.25 0 27.8 0 16-28.85 15-31.55 15-31.55 14-28.9 2.2 0ZM23.7-11.2L6.2-11.2 6.2-12.5 23.7-12.5 23.7-11.2ZM35-29.9L35-29.9Q34.35-29.9 33.95-30.3 33.55-30.7 33.55-31.35L33.55-31.35Q33.55-32 33.95-32.4 34.35-32.8 35.05-32.8L35.05-32.8Q35.7-32.8 36.1-32.4 36.5-32 36.5-31.35L36.5-31.35Q36.5-30.7 36.1-30.3 35.7-29.9 35-29.9ZM34.35-25L35.75-25 35.75 0 34.35 0 34.35-25ZM45.8 0L44.4 0 44.4-25 45.7-25 45.75-18.25 45.59-18.5Q46.2-20.55 47.62-22.15 49.05-23.75 51.12-24.63 53.2-25.5 55.75-25.5L55.75-25.5Q58.59-25.5 60.7-24.43 62.8-23.35 63.97-21.35 65.15-19.35 65.15-16.35L65.15-16.35 65.15 0 63.75 0 63.75-16Q63.75-20.05 61.52-22.18 59.3-24.3 55.55-24.3L55.55-24.3Q52.84-24.3 50.62-23.03 48.4-21.75 47.09-19.6 45.8-17.45 45.8-14.7L45.8-14.7 45.8 0ZM81.44 0.5L81.44 0.5Q77.59 0.5 74.77-1.03 71.94-2.55 71.04-5.55L71.04-5.55 72.29-6.3Q73.04-3.55 75.52-2.15 77.99-0.75 81.64-0.75L81.64-0.75Q85.39-0.75 87.57-2.25 89.74-3.75 89.74-6.3L89.74-6.3Q89.74-8.05 88.62-9.28 87.49-10.5 84.44-11.1L84.44-11.1 78.69-12.35Q75.19-13.1 73.69-14.73 72.19-16.35 72.19-18.55L72.19-18.55Q72.19-20.55 73.39-22.1 74.59-23.65 76.72-24.58 78.84-25.5 81.54-25.5L81.54-25.5Q85.34-25.5 87.74-24 90.14-22.5 90.94-19.4L90.94-19.4 89.74-18.65Q89.04-21.6 86.92-22.95 84.79-24.3 81.54-24.3L81.54-24.3Q79.19-24.3 77.42-23.58 75.64-22.85 74.62-21.6 73.59-20.35 73.59-18.75L73.59-18.75Q73.59-17 74.77-15.68 75.94-14.35 78.84-13.7L78.84-13.7 84.74-12.4Q88.29-11.6 89.72-10.13 91.14-8.65 91.14-6.4L91.14-6.4Q91.14-4.3 89.94-2.73 88.74-1.15 86.57-0.33 84.39 0.5 81.44 0.5Z" opacity="1" transform="matrix(1,0,0,1,0,0)" fill="#001f3f" class="wordmark-text-0" data-fill-palette-color="primary" id="text-0"></path></svg></g></svg></g></svg></g></svg></g><g><svg viewBox="0 0 244.43135999999996 155.93737988949042" height="155.93737988949042" width="244.43135999999996"><g><svg xmlns="http://www.w3.org/2000/svg" xmlns:xlink="http://www.w3.org/1999/xlink" version="1.1" x="0" y="0" viewBox="8 24 83.83600616455078 53.48400115966797" enable-background="new 0 0 100 100" xml:space="preserve" height="155.93737988949042" width="244.43135999999996" class="icon-icon-0" data-fill-palette-color="accent" id="icon-0"><path d="M83.924 24c-4.363 0-7.913 3.55-7.913 7.913 0 1.461 0.405 2.825 1.098 4.001L64.486 48.536c-1.13-0.622-2.426-0.978-3.804-0.978-3.191 0-5.942 1.903-7.192 4.631L41.195 49.8c-0.803-3.519-3.951-6.154-7.709-6.154-4.363 0-7.913 3.55-7.913 7.913 0 1.309 0.325 2.543 0.89 3.631l-7.214 7.216c-1.016-0.475-2.143-0.747-3.335-0.747C11.55 61.658 8 65.208 8 69.571s3.55 7.913 7.913 7.913c4.364 0 7.914-3.55 7.914-7.913 0-1.207-0.279-2.347-0.765-3.371l7.35-7.351c0.945 0.4 1.984 0.622 3.074 0.622 3.07 0 5.73-1.76 7.042-4.32l12.538 2.437c0.929 3.337 3.988 5.797 7.617 5.797 4.363 0 7.913-3.55 7.913-7.913 0-1.019-0.2-1.989-0.553-2.885l13.229-13.228c0.83 0.296 1.721 0.467 2.651 0.467 4.363 0 7.913-3.55 7.913-7.913S88.287 24 83.924 24zM15.913 72.104c-1.397 0-2.533-1.137-2.533-2.533 0-1.397 1.136-2.533 2.533-2.533 1.397 0 2.534 1.136 2.534 2.533C18.447 70.968 17.311 72.104 15.913 72.104zM33.486 54.092c-1.397 0-2.534-1.137-2.534-2.533 0-1.397 1.137-2.533 2.534-2.533s2.534 1.136 2.534 2.533C36.02 52.955 34.883 54.092 33.486 54.092zM60.683 58.005c-1.397 0-2.533-1.137-2.533-2.533 0-1.397 1.136-2.533 2.533-2.533 1.396 0 2.533 1.136 2.533 2.533C63.216 56.868 62.079 58.005 60.683 58.005zM83.924 34.446c-1.397 0-2.533-1.136-2.533-2.533s1.136-2.533 2.533-2.533c1.396 0 2.533 1.136 2.533 2.533S85.32 34.446 83.924 34.446z" fill="#00b5d8" data-fill-palette-color="accent"></path></svg></g></svg></g></svg></g><defs></defs></svg><rect width="395.52" height="91.4329231914982" fill="none" stroke="none" visibility="hidden"></rect></g></svg></g></svg>